<svg width="579" height="573" viewBox="0 0 579 573" fill="none" xmlns="http://www.w3.org/2000/svg">
<path opacity="0.05" d="M289.5 0C129.551 0 0 131.539 0 293.771C0 423.591 82.9417 533.679 197.946 572.493C212.421 575.258 217.728 566.166 217.728 558.368C217.728 551.392 217.487 532.907 217.367 508.418C136.837 526.131 119.853 469.006 119.853 469.006C106.681 435.1 87.6461 426.032 87.6461 426.032C61.4222 407.821 89.6726 408.195 89.6726 408.195C118.743 410.237 134.014 438.464 134.014 438.464C159.828 483.381 201.782 470.401 218.331 462.903C220.936 443.894 228.391 430.965 236.666 423.615C172.373 416.266 104.799 391.005 104.799 278.449C104.799 246.387 116.017 220.178 134.593 199.625C131.336 192.202 121.566 162.331 137.126 121.873C137.126 121.873 161.372 114 216.739 151.993C239.899 145.465 264.506 142.226 289.114 142.077C313.721 142.226 338.329 145.465 361.489 151.993C416.494 114 440.739 121.873 440.739 121.873C456.3 162.331 446.529 192.202 443.634 199.625C462.09 220.178 473.308 246.387 473.308 278.449C473.308 391.304 405.637 416.141 341.224 423.366C351.356 432.186 360.765 450.197 360.765 477.725C360.765 517.038 360.403 548.627 360.403 558.169C360.403 565.867 365.469 575.059 380.306 572.12C496.131 533.555 579 423.391 579 293.771C579 131.539 449.376 0 289.5 0Z" fill="#D6E7FF"/>
</svg>
